<mxfile host="Electron" agent="Mozilla/5.0 (Windows NT 10.0; Win64; x64) AppleWebKit/537.36 (KHTML, like Gecko) draw.io/28.2.5 Chrome/138.0.7204.251 Electron/37.6.1 Safari/537.36" version="28.2.5">
  <diagram id="1M1jXv-uAlGA9EbfMaOJ" name="Página-1">
    <mxGraphModel dx="2037" dy="1201" grid="1" gridSize="10" guides="1" tooltips="1" connect="1" arrows="1" fold="1" page="1" pageScale="1" pageWidth="827" pageHeight="1169" math="0" shadow="0">
      <root>
        <mxCell id="0" />
        <mxCell id="1" parent="0" />
        <mxCell id="_qx23exhK5WSByWGlvCi-1" value="" style="rounded=0;whiteSpace=wrap;html=1;" vertex="1" parent="1">
          <mxGeometry x="200" y="180" width="560" height="450" as="geometry" />
        </mxCell>
        <mxCell id="_qx23exhK5WSByWGlvCi-2" value="NAVBAR" style="rounded=0;whiteSpace=wrap;html=1;" vertex="1" parent="1">
          <mxGeometry x="200" y="180" width="560" height="60" as="geometry" />
        </mxCell>
        <mxCell id="_qx23exhK5WSByWGlvCi-3" value="Carrusel About Us - Banner oferta - Proximos eventos" style="rounded=0;whiteSpace=wrap;html=1;" vertex="1" parent="1">
          <mxGeometry x="200" y="240" width="560" height="110" as="geometry" />
        </mxCell>
        <mxCell id="_qx23exhK5WSByWGlvCi-5" value="Footer Redes sociales - direccion - telefono de contacto" style="rounded=0;whiteSpace=wrap;html=1;" vertex="1" parent="1">
          <mxGeometry x="200" y="570" width="560" height="60" as="geometry" />
        </mxCell>
        <mxCell id="_qx23exhK5WSByWGlvCi-6" value="Carrusel más vendidos" style="rounded=0;whiteSpace=wrap;html=1;" vertex="1" parent="1">
          <mxGeometry x="220" y="375" width="520" height="60" as="geometry" />
        </mxCell>
        <mxCell id="_qx23exhK5WSByWGlvCi-7" value="Card producto 1" style="rounded=0;whiteSpace=wrap;html=1;" vertex="1" parent="1">
          <mxGeometry x="220" y="450" width="80" height="60" as="geometry" />
        </mxCell>
        <mxCell id="_qx23exhK5WSByWGlvCi-8" value="Card producto 2" style="rounded=0;whiteSpace=wrap;html=1;" vertex="1" parent="1">
          <mxGeometry x="310" y="450" width="80" height="60" as="geometry" />
        </mxCell>
        <mxCell id="_qx23exhK5WSByWGlvCi-9" value="Card producto 3" style="rounded=0;whiteSpace=wrap;html=1;" vertex="1" parent="1">
          <mxGeometry x="400" y="450" width="80" height="60" as="geometry" />
        </mxCell>
        <mxCell id="_qx23exhK5WSByWGlvCi-10" value="Card producto 4" style="rounded=0;whiteSpace=wrap;html=1;" vertex="1" parent="1">
          <mxGeometry x="490" y="450" width="80" height="60" as="geometry" />
        </mxCell>
        <mxCell id="_qx23exhK5WSByWGlvCi-11" value="Card producto 5" style="rounded=0;whiteSpace=wrap;html=1;" vertex="1" parent="1">
          <mxGeometry x="580" y="450" width="80" height="60" as="geometry" />
        </mxCell>
        <mxCell id="_qx23exhK5WSByWGlvCi-12" value="Card producto 6" style="rounded=0;whiteSpace=wrap;html=1;" vertex="1" parent="1">
          <mxGeometry x="670" y="450" width="80" height="60" as="geometry" />
        </mxCell>
        <mxCell id="_qx23exhK5WSByWGlvCi-13" value="Carrito" style="rounded=0;whiteSpace=wrap;html=1;" vertex="1" parent="1">
          <mxGeometry x="680" y="180" width="80" height="60" as="geometry" />
        </mxCell>
        <mxCell id="_qx23exhK5WSByWGlvCi-14" value="Logo" style="rounded=0;whiteSpace=wrap;html=1;" vertex="1" parent="1">
          <mxGeometry x="200" y="180" width="80" height="60" as="geometry" />
        </mxCell>
        <mxCell id="_qx23exhK5WSByWGlvCi-15" value="" style="rounded=0;whiteSpace=wrap;html=1;" vertex="1" parent="1">
          <mxGeometry x="200" y="660" width="560" height="450" as="geometry" />
        </mxCell>
        <mxCell id="_qx23exhK5WSByWGlvCi-16" value="NAVBAR" style="rounded=0;whiteSpace=wrap;html=1;" vertex="1" parent="1">
          <mxGeometry x="200" y="660" width="560" height="60" as="geometry" />
        </mxCell>
        <mxCell id="_qx23exhK5WSByWGlvCi-17" value="Resumen productos y checkout" style="rounded=0;whiteSpace=wrap;html=1;" vertex="1" parent="1">
          <mxGeometry x="200" y="720" width="560" height="330" as="geometry" />
        </mxCell>
        <mxCell id="_qx23exhK5WSByWGlvCi-18" value="Footer Redes sociales - direccion - telefono de contacto" style="rounded=0;whiteSpace=wrap;html=1;" vertex="1" parent="1">
          <mxGeometry x="200" y="1050" width="560" height="60" as="geometry" />
        </mxCell>
        <mxCell id="_qx23exhK5WSByWGlvCi-26" value="Carrito" style="rounded=0;whiteSpace=wrap;html=1;" vertex="1" parent="1">
          <mxGeometry x="680" y="660" width="80" height="60" as="geometry" />
        </mxCell>
        <mxCell id="_qx23exhK5WSByWGlvCi-27" value="Logo" style="rounded=0;whiteSpace=wrap;html=1;" vertex="1" parent="1">
          <mxGeometry x="200" y="660" width="80" height="60" as="geometry" />
        </mxCell>
        <mxCell id="_qx23exhK5WSByWGlvCi-28" value="" style="rounded=0;whiteSpace=wrap;html=1;" vertex="1" parent="1">
          <mxGeometry x="790" y="180" width="560" height="450" as="geometry" />
        </mxCell>
        <mxCell id="_qx23exhK5WSByWGlvCi-29" value="NAVBAR" style="rounded=0;whiteSpace=wrap;html=1;" vertex="1" parent="1">
          <mxGeometry x="790" y="180" width="560" height="60" as="geometry" />
        </mxCell>
        <mxCell id="_qx23exhK5WSByWGlvCi-30" value="Resumen perfil" style="rounded=0;whiteSpace=wrap;html=1;" vertex="1" parent="1">
          <mxGeometry x="790" y="240" width="560" height="330" as="geometry" />
        </mxCell>
        <mxCell id="_qx23exhK5WSByWGlvCi-31" value="Footer Redes sociales - direccion - telefono de contacto" style="rounded=0;whiteSpace=wrap;html=1;" vertex="1" parent="1">
          <mxGeometry x="790" y="570" width="560" height="60" as="geometry" />
        </mxCell>
        <mxCell id="_qx23exhK5WSByWGlvCi-32" value="Carrito" style="rounded=0;whiteSpace=wrap;html=1;" vertex="1" parent="1">
          <mxGeometry x="1270" y="180" width="80" height="60" as="geometry" />
        </mxCell>
        <mxCell id="_qx23exhK5WSByWGlvCi-33" value="Logo" style="rounded=0;whiteSpace=wrap;html=1;" vertex="1" parent="1">
          <mxGeometry x="790" y="180" width="80" height="60" as="geometry" />
        </mxCell>
        <mxCell id="_qx23exhK5WSByWGlvCi-34" value="Perfil" style="rounded=0;whiteSpace=wrap;html=1;" vertex="1" parent="1">
          <mxGeometry x="600" y="180" width="80" height="60" as="geometry" />
        </mxCell>
        <mxCell id="_qx23exhK5WSByWGlvCi-35" value="Perfil" style="rounded=0;whiteSpace=wrap;html=1;" vertex="1" parent="1">
          <mxGeometry x="1190" y="180" width="80" height="60" as="geometry" />
        </mxCell>
        <mxCell id="_qx23exhK5WSByWGlvCi-36" value="Perfil" style="rounded=0;whiteSpace=wrap;html=1;" vertex="1" parent="1">
          <mxGeometry x="600" y="660" width="80" height="60" as="geometry" />
        </mxCell>
        <mxCell id="_qx23exhK5WSByWGlvCi-37" value="" style="rounded=0;whiteSpace=wrap;html=1;" vertex="1" parent="1">
          <mxGeometry x="790" y="660" width="560" height="450" as="geometry" />
        </mxCell>
        <mxCell id="_qx23exhK5WSByWGlvCi-38" value="NAVBAR" style="rounded=0;whiteSpace=wrap;html=1;" vertex="1" parent="1">
          <mxGeometry x="790" y="660" width="560" height="60" as="geometry" />
        </mxCell>
        <mxCell id="_qx23exhK5WSByWGlvCi-39" value="Resumen perfil" style="rounded=0;whiteSpace=wrap;html=1;" vertex="1" parent="1">
          <mxGeometry x="790" y="720" width="560" height="330" as="geometry" />
        </mxCell>
        <mxCell id="_qx23exhK5WSByWGlvCi-40" value="Footer Redes sociales - direccion - telefono de contacto" style="rounded=0;whiteSpace=wrap;html=1;" vertex="1" parent="1">
          <mxGeometry x="790" y="1050" width="560" height="60" as="geometry" />
        </mxCell>
        <mxCell id="_qx23exhK5WSByWGlvCi-41" value="Carrito" style="rounded=0;whiteSpace=wrap;html=1;" vertex="1" parent="1">
          <mxGeometry x="1270" y="660" width="80" height="60" as="geometry" />
        </mxCell>
        <mxCell id="_qx23exhK5WSByWGlvCi-42" value="Logo" style="rounded=0;whiteSpace=wrap;html=1;" vertex="1" parent="1">
          <mxGeometry x="790" y="660" width="80" height="60" as="geometry" />
        </mxCell>
        <mxCell id="_qx23exhK5WSByWGlvCi-43" value="Perfil" style="rounded=0;whiteSpace=wrap;html=1;" vertex="1" parent="1">
          <mxGeometry x="1190" y="660" width="80" height="60" as="geometry" />
        </mxCell>
      </root>
    </mxGraphModel>
  </diagram>
</mxfile>
